<svg width="56" height="56" viewBox="0 0 56 56" fill="none" xmlns="http://www.w3.org/2000/svg">
<rect x="4" y="4" width="48" height="48" rx="24" fill="#FFE4E8"/>
<rect x="4" y="4" width="48" height="48" rx="24" stroke="#FFF1F3" stroke-width="8"/>
<path d="M21.0001 30H34.1359C35.1487 30 35.6551 30 36.0582 29.8112C36.4134 29.6448 36.7118 29.3777 36.9163 29.0432C37.1485 28.6633 37.2044 28.16 37.3163 27.1534L37.9013 21.8883C37.9355 21.5809 37.9525 21.4272 37.9031 21.3082C37.8597 21.2037 37.7821 21.117 37.683 21.0623C37.5702 21 37.4155 21 37.1062 21H20.5001M18 18H19.2484C19.5131 18 19.6454 18 19.7489 18.0503C19.84 18.0946 19.9155 18.1656 19.9654 18.2538C20.0221 18.3539 20.0304 18.486 20.0469 18.7501L20.9531 33.2499C20.9696 33.514 20.9779 33.6461 21.0346 33.7462C21.0845 33.8344 21.16 33.9054 21.2511 33.9497C21.3546 34 21.4869 34 21.7516 34H35M23.5 37.5H23.51M32.5 37.5H32.51M24 37.5C24 37.7761 23.7761 38 23.5 38C23.2239 38 23 37.7761 23 37.5C23 37.2239 23.2239 37 23.5 37C23.7761 37 24 37.2239 24 37.5ZM33 37.5C33 37.7761 32.7761 38 32.5 38C32.2239 38 32 37.7761 32 37.5C32 37.2239 32.2239 37 32.5 37C32.7761 37 33 37.2239 33 37.5Z" stroke="#E31B54" stroke-width="2" stroke-linecap="round" stroke-linejoin="round"/>
</svg>
